HIERARCHY
ROOT SpineBase
{
  OFFSET 0.000000 0.000000 0.000000
  CHANNELS 6 Xposition Yposition Zposition Zrotation Xrotation Yrotation
  JOINT SpineMid
  {
    OFFSET -0.000000 29.205358 0.000000
    CHANNELS 3 Zrotation Xrotation Yrotation
    JOINT SpineShoulder
    {
      OFFSET 0.151997 21.695974 -0.710082
      CHANNELS 3 Zrotation Xrotation Yrotation
      JOINT Neck
      {
        OFFSET 0.083899 7.172645 -0.565397
        CHANNELS 3 Zrotation Xrotation Yrotation
        JOINT Head
        {
          OFFSET -3.883286 13.412168 -1.675843
          CHANNELS 3 Zrotation Xrotation Yrotation
          End Site
          {
            OFFSET 0 0 0
          }
        }
      }
      JOINT ShoulderLeft
      {
        OFFSET -15.719076 -4.807253 5.081993
        CHANNELS 3 Zrotation Xrotation Yrotation
        JOINT ElbowLeft
        {
          OFFSET -1.452024 -26.333002 2.103464
          CHANNELS 3 Zrotation Xrotation Yrotation
          JOINT WristLeft
          {
            OFFSET 0.193273 -21.066493 -6.516473
            CHANNELS 3 Zrotation Xrotation Yrotation
            JOINT HandLeft
            {
              OFFSET 0.363711 -3.842047 -1.690426
              CHANNELS 3 Zrotation Xrotation Yrotation
              JOINT HandTipLeft
              {
                OFFSET -1.360659 -4.347155 -1.324517
                CHANNELS 3 Zrotation Xrotation Yrotation
                End Site
                {
                  OFFSET 0 0 0
                }
              }
              JOINT ThumbLeft
              {
                OFFSET 3.766479 0.338667 -2.965049
                CHANNELS 3 Zrotation Xrotation Yrotation
                End Site
                {
                  OFFSET 0 0 0
                }
              }
            }
          }
        }
      }
      JOINT ShoulderRight
      {
        OFFSET 14.469482 -2.385762 -7.667690
        CHANNELS 3 Zrotation Xrotation Yrotation
        JOINT ElbowRight
        {
          OFFSET 6.370759 -26.243146 0.626313
          CHANNELS 3 Zrotation Xrotation Yrotation
          JOINT WristRight
          {
            OFFSET -0.997226 -21.365478 -5.062399
            CHANNELS 3 Zrotation Xrotation Yrotation
            JOINT HandRight
            {
              OFFSET -1.845211 -5.379721 0.641113
              CHANNELS 3 Zrotation Xrotation Yrotation
              JOINT HandTipRight
              {
                OFFSET -0.168558 -4.707383 0.070365
                CHANNELS 3 Zrotation Xrotation Yrotation
                End Site
                {
                  OFFSET 0 0 0
                }
              }
              JOINT ThumbRight
              {
                OFFSET 3.252253 0.273987 -0.559326
                CHANNELS 3 Zrotation Xrotation Yrotation
                End Site
                {
                  OFFSET 0 0 0
                }
              }
            }
          }
        }
      }
    }
  }
  JOINT HipLeft
  {
    OFFSET -6.585761 0.278142 -0.932076
    CHANNELS 3 Zrotation Xrotation Yrotation
    JOINT KneeLeft
    {
      OFFSET 3.624174 -28.175277 5.080812
      CHANNELS 3 Zrotation Xrotation Yrotation
      JOINT AnkleLeft
      {
        OFFSET 3.046044 -31.737816 5.485077
        CHANNELS 3 Zrotation Xrotation Yrotation
        JOINT FootLeft
        {
          OFFSET 4.784623 -6.679759 -5.794560
          CHANNELS 3 Zrotation Xrotation Yrotation
          End Site
          {
            OFFSET 0 0 0
          }
        }
      }
    }
  }
  JOINT HipRight
  {
    OFFSET 7.105739 1.450684 -5.714513
    CHANNELS 3 Zrotation Xrotation Yrotation
    JOINT KneeRight
    {
      OFFSET 5.980906 -27.019613 3.248136
      CHANNELS 3 Zrotation Xrotation Yrotation
      JOINT AnkleRight
      {
        OFFSET 3.830433 -33.504166 6.092072
        CHANNELS 3 Zrotation Xrotation Yrotation
        JOINT FootRight
        {
          OFFSET -5.774719 -6.189210 -2.691434
          CHANNELS 3 Zrotation Xrotation Yrotation
          End Site
          {
            OFFSET 0 0 0
          }
        }
      }
    }
  }
}
MOTION
Frames: 8
Frame Time: 0.033333
-23.574012 68.362642 357.079645 0.000000 0.000000 19.254297 -0.000000 0.000000 -19.254297 -0.000000 0.000000 0.000000 -0.000000 0.000000 0.000000 0.000000 0.000000 0.000000 -0.000000 0.000000 0.000000 -0.000000 0.000000 0.000000 -0.000000 0.000000 0.000000 -0.000000 0.000000 0.000000 0.000000 0.000000 0.000000 0.000000 0.000000 0.000000 -0.000000 0.000000 0.000000 -0.000000 0.000000 0.000000 -0.000000 0.000000 0.000000 -0.000000 0.000000 0.000000 0.000000 0.000000 0.000000 0.000000 0.000000 0.000000 -0.000000 0.000000 -19.254297 -0.000000 0.000000 0.000000 -0.000000 0.000000 0.000000 0.000000 0.000000 0.000000 -0.000000 0.000000 -19.254297 -0.000000 0.000000 0.000000 -0.000000 0.000000 0.000000 0.000000 0.000000 0.000000
-23.543475 68.380349 357.065536 0.005133 0.055538 19.129706 -0.023050 -0.050789 -19.129719 -0.000000 0.000000 0.000000 -0.000000 0.000000 0.000000 0.000000 0.000000 0.000000 -0.000000 0.000000 0.000000 -0.000000 0.000000 0.000000 -0.061875 -1.088869 -0.076771 8.443672 -4.549915 -0.480199 0.000000 0.000000 0.000000 0.000000 0.000000 0.000000 -0.000000 0.000000 0.000000 -0.000000 0.000000 0.000000 0.829411 2.018275 -0.610887 0.331163 -4.734550 0.763174 0.000000 0.000000 0.000000 0.000000 0.000000 0.000000 -0.023050 -0.050789 -19.129719 -0.000000 0.000000 0.000000 0.786495 0.278722 -0.481164 0.000000 0.000000 0.000000 -0.023050 -0.050789 -19.129719 -0.000000 0.000000 0.000000 4.328160 0.386728 -2.337138 0.000000 0.000000 0.000000
-23.516847 68.395251 357.053397 0.010287 0.106862 19.029598 -0.044568 -0.097668 -19.029646 -0.000000 0.000000 0.000000 -0.000000 0.000000 0.000000 0.000000 0.000000 0.000000 -0.000000 0.000000 0.000000 -0.000000 0.000000 0.000000 -0.086284 -2.187621 -0.172262 14.012811 -7.123195 -0.609472 0.000000 0.000000 0.000000 0.000000 0.000000 0.000000 -0.000000 0.000000 0.000000 -0.000000 0.000000 0.000000 1.278298 3.417919 -1.066311 1.110562 -8.383313 1.443476 0.000000 0.000000 0.000000 0.000000 0.000000 0.000000 -0.044568 -0.097668 -19.029646 -0.000000 0.000000 0.000000 1.170219 0.403831 -0.722537 0.000000 0.000000 0.000000 -0.044568 -0.097668 -19.029646 -0.000000 0.000000 0.000000 7.691608 0.560000 -4.160324 0.000000 0.000000 0.000000
-23.494126 68.407348 357.043229 0.015461 0.153941 18.953957 -0.064625 -0.140573 -18.954057 -0.000000 0.000000 0.000000 -0.000000 0.000000 0.000000 0.000000 0.000000 0.000000 -0.000000 0.000000 0.000000 -0.000000 0.000000 0.000000 -0.069205 -3.285120 -0.286237 17.432915 -8.216859 -0.742264 0.000000 0.000000 0.000000 0.000000 0.000000 0.000000 -0.000000 0.000000 0.000000 -0.000000 0.000000 0.000000 1.421256 4.379916 -1.400255 2.123439 -10.860569 2.036142 0.000000 0.000000 0.000000 0.000000 0.000000 0.000000 -0.064625 -0.140573 -18.954057 -0.000000 0.000000 0.000000 1.152035 0.381182 -0.722896 0.000000 0.000000 0.000000 -0.064625 -0.140573 -18.954057 -0.000000 0.000000 0.000000 9.998787 0.611224 -5.408056 0.000000 0.000000 0.000000
-23.475314 68.416641 357.035033 0.020653 0.196750 18.902769 -0.083279 -0.179448 -18.902935 -0.000000 0.000000 0.000000 -0.000000 0.000000 0.000000 0.000000 0.000000 0.000000 -0.000000 0.000000 0.000000 -0.000000 0.000000 0.000000 -0.006888 -4.368836 -0.418029 19.231695 -8.207768 -0.978186 0.000000 0.000000 0.000000 0.000000 0.000000 0.000000 -0.000000 0.000000 0.000000 -0.000000 0.000000 0.000000 1.289020 5.004398 -1.634993 3.204027 -12.078949 2.496070 0.000000 0.000000 0.000000 0.000000 0.000000 0.000000 -0.083279 -0.179448 -18.902935 -0.000000 0.000000 0.000000 0.730912 0.210153 -0.481899 0.000000 0.000000 0.000000 -0.083279 -0.179448 -18.902935 -0.000000 0.000000 0.000000 11.217498 0.609895 -6.058592 0.000000 0.000000 0.000000
-23.460410 68.423129 357.028807 0.025860 0.235265 18.876021 -0.100583 -0.214247 -18.876262 -0.000000 0.000000 0.000000 -0.000000 0.000000 0.000000 0.000000 0.000000 0.000000 -0.000000 0.000000 0.000000 -0.000000 0.000000 0.000000 0.103972 -5.425115 -0.566534 19.733687 -7.313709 -1.309081 0.000000 0.000000 0.000000 0.000000 0.000000 0.000000 -0.000000 0.000000 0.000000 -0.000000 0.000000 0.000000 0.879334 5.341665 -1.784185 4.251518 -12.028060 2.777615 0.000000 0.000000 0.000000 0.000000 0.000000 0.000000 -0.100583 -0.214247 -18.876262 -0.000000 0.000000 0.000000 -0.000000 0.000000 0.000000 0.000000 0.000000 0.000000 -0.100583 -0.214247 -18.876262 -0.000000 0.000000 0.000000 11.343352 0.593684 -6.108859 0.000000 0.000000 0.000000
-23.445565 68.424169 357.021300 0.037292 0.270508 18.862926 -0.122747 -0.243923 -18.863275 -0.000000 0.000000 0.000000 -0.000000 0.000000 0.000000 0.000000 0.000000 0.000000 -0.000000 0.000000 0.000000 -0.000000 0.000000 0.000000 -0.451918 -6.818750 -0.487306 19.008552 -4.066155 -2.510758 0.000000 0.000000 0.000000 0.000000 0.000000 0.000000 -0.000000 0.000000 0.000000 -0.000000 0.000000 0.000000 0.828853 5.403318 -1.809530 5.728049 -11.714484 3.018911 0.000000 0.000000 0.000000 0.000000 0.000000 0.000000 -0.122747 -0.243923 -18.863275 -0.000000 0.000000 0.000000 -2.320618 -0.917806 1.366608 0.000000 0.000000 0.000000 -0.122747 -0.243923 -18.863275 -0.000000 0.000000 0.000000 9.850621 0.478311 -5.186014 0.000000 0.000000 0.000000
-23.438712 68.419287 357.015613 0.038863 0.300605 18.873866 -0.134016 -0.271870 -18.874286 -0.000000 0.000000 0.000000 1.106555 0.593834 0.303817 0.000000 0.000000 0.000000 -0.000000 0.000000 0.000000 -0.000000 0.000000 0.000000 -0.262521 -9.466147 -0.834981 16.846807 0.059983 -2.930102 0.000000 0.000000 0.000000 0.000000 0.000000 0.000000 -0.000000 0.000000 0.000000 -0.000000 0.000000 0.000000 -0.334260 5.226324 -1.826372 6.055460 -8.800608 2.759371 0.000000 0.000000 0.000000 0.000000 0.000000 0.000000 -0.134016 -0.271870 -18.874286 -0.000000 0.000000 0.000000 -2.496748 -4.637471 -1.325666 0.000000 0.000000 0.000000 -0.134016 -0.271870 -18.874286 -0.000000 0.000000 0.000000 6.548695 -0.058506 -2.950460 0.000000 0.000000 0.000000
